<svg aria-hidden="true" style="position: absolute; width: 0; height: 0; overflow: hidden;" version="1.1" xmlns="http://www.w3.org/2000/svg" xmlns:xlink="http://www.w3.org/1999/xlink">
<defs>
<symbol id="icon-flowers" viewBox="0 0 32 32">
<path d="M5.076 0.045c-0.466 0.166-0.823 0.582-0.928 1.083-0.080 0.386-0.035 1.108 0.103 1.64 0.166 0.637 0.344 1.023 0.953 2.071 0.502 0.863 0.65 1.339 0.65 2.082 0 0.429-0.040 0.767-0.138 1.179-0.098 0.416-0.080 0.384-0.281 0.504-0.098 0.058-0.276 0.171-0.394 0.248l-0.213 0.143 0.176-0.354c0.537-1.083 0.695-2.375 0.381-3.142-0.273-0.67-0.971-1.113-1.595-1.018-0.559 0.088-0.885 0.487-0.885 1.083 0 0.258 0.053 0.449 0.171 0.609 0.263 0.366 0.955 0.349 1.299-0.033 0.075-0.083 0.090-0.118 0.090-0.211 0-0.063-0.008-0.113-0.015-0.113s-0.048 0.028-0.090 0.063c-0.238 0.201-0.888 0.176-1.141-0.045-0.118-0.105-0.166-0.218-0.13-0.311 0.090-0.241 0.499-0.439 0.898-0.436 0.662 0.003 1.211 0.419 1.374 1.038 0.125 0.479-0.028 1.269-0.384 1.979-0.266 0.529-0.481 0.843-0.996 1.429-0.386 0.444-0.647 0.78-0.81 1.033l-0.123 0.198-0.018-0.248c-0.028-0.421-0.115-0.657-0.311-0.855-0.176-0.173-0.354-0.246-0.612-0.246-0.178 0-0.236 0.010-0.354 0.065-0.183 0.085-0.321 0.213-0.399 0.366-0.055 0.105-0.063 0.153-0.063 0.386 0 0.246 0.005 0.271 0.068 0.366 0.13 0.196 0.411 0.236 0.712 0.098 0.216-0.098 0.286-0.158 0.286-0.241 0-0.090-0.038-0.1-0.391-0.1-0.153 0-0.316-0.013-0.364-0.028-0.103-0.035-0.173-0.093-0.173-0.14 0-0.070 0.233-0.283 0.396-0.364 0.145-0.073 0.191-0.083 0.369-0.083 0.241 0 0.396 0.060 0.557 0.218 0.208 0.206 0.311 0.584 0.221 0.823-0.023 0.063-0.050 0.158-0.063 0.213s-0.055 0.196-0.098 0.313c-0.115 0.326-0.153 0.542-0.153 0.903 0 0.93 0.406 1.793 1.131 2.4l0.201 0.168-0.14 0.068c-0.248 0.118-0.356 0.258-0.414 0.532-0.060 0.291 0.028 0.557 0.359 1.103 0.334 0.549 0.374 0.66 0.419 1.119 0.035 0.361 0.068 0.512 0.14 0.657 0.128 0.258 0.356 0.394 0.69 0.416 0.108 0.008 0.198 0.023 0.198 0.030s-0.115 0.173-0.253 0.366c-0.258 0.364-0.421 0.665-0.471 0.873-0.068 0.283-0.078 1.008-0.015 1.224 0.040 0.148 0.033 0.143-0.063-0.020-0.441-0.78-1.367-1.036-1.841-0.507-0.063 0.070-0.193 0.258-0.288 0.421-0.283 0.479-0.391 0.559-0.883 0.67-0.351 0.075-0.539 0.166-0.604 0.286-0.070 0.13-0.055 0.466 0.028 0.639 0.085 0.173 0.341 0.421 0.662 0.637 0.148 0.1 0.268 0.191 0.268 0.203 0 0.010-0.070 0.025-0.155 0.035-0.487 0.050-0.878 0.186-1.068 0.374-0.321 0.313-0.296 1.061 0.045 1.394 0.065 0.063 0.228 0.163 0.439 0.266 0.474 0.233 0.577 0.354 0.717 0.82 0.030 0.1 0.080 0.233 0.11 0.296l0.058 0.113-0.248 0.005c-0.374 0.005-0.85 0.058-0.85 0.095 0 0.018-0.025 0.038-0.053 0.045-0.093 0.025-0.040 0.145 0.176 0.414 0.334 0.416 0.494 0.522 0.92 0.612 0.306 0.063 0.72 0.068 0.888 0.008 0.063-0.020 0.085-0.035 0.050-0.030l-0.063 0.008v-0.283c0-0.271 0.002-0.283 0.050-0.271 0.028 0.008 0.015-0.005-0.025-0.023-0.043-0.020-0.218-0.048-0.389-0.065-0.652-0.058-0.697-0.068-0.978-0.198-0.145-0.068-0.286-0.128-0.313-0.135-0.028-0.005 0.015-0.018 0.095-0.030 0.208-0.028 0.637 0 0.767 0.048 0.080 0.030 0.118 0.033 0.128 0.013 0.013-0.018 0.053-0.010 0.125 0.028 0.276 0.14 0.68 0.186 1.003 0.113 0.241-0.055 0.223-0.055 0.489 0.023 0.286 0.085 0.725 0.298 0.955 0.461 0.223 0.158 0.487 0.401 0.487 0.446 0 0.020 0.020 0.038 0.045 0.038 0.023 0.003 0.003 0.010-0.045 0.020-0.095 0.018-0.143 0.103-0.058 0.103 0.090 0 0.439 0.103 0.599 0.176 0.409 0.186 0.883 0.577 1.111 0.915 0.278 0.419 0.384 0.835 0.384 1.542 0.003 0.549 0.040 0.534 0.063-0.025 0.035-0.893-0.188-1.55-0.702-2.064-0.16-0.16-0.153-0.163 0.118-0.050 0.246 0.103 0.329 0.166 0.559 0.421 0.025 0.030 0.035 0.038 0.025 0.023-0.013-0.018-0.018-0.123-0.013-0.236 0.008-0.198 0.008-0.203-0.055-0.216-0.12-0.023-0.291-0.083-0.489-0.168-0.11-0.050-0.243-0.098-0.293-0.105-0.083-0.015-0.098-0.010-0.115 0.035-0.018 0.053-0.020 0.053-0.115-0.013-0.148-0.1-0.444-0.231-0.617-0.271-0.155-0.038-0.196-0.055-0.173-0.078 0.008-0.005 0.253-0.038 0.549-0.068 0.461-0.048 0.567-0.050 0.765-0.025 0.191 0.025 0.444 0.085 0.604 0.148 0.025 0.008 0.035-0.008 0.035-0.050 0-0.075-0.166-0.191-0.376-0.261-0.228-0.075-0.67-0.063-1.201 0.040-0.364 0.068-0.441 0.075-0.469 0.048-0.020-0.020-0.045-0.145-0.063-0.296-0.015-0.145-0.035-0.298-0.048-0.341l-0.020-0.078h0.281c0.308 0.003 0.507-0.040 0.732-0.15 0.168-0.083 0.321-0.226 0.557-0.527 0.171-0.216 0.411-0.459 0.456-0.459 0.010 0 0.028 0.038 0.035 0.085 0.040 0.208 0.246 0.366 0.529 0.404 0.293 0.038 0.291 0.033 0.103 0.133-0.208 0.11-0.401 0.278-0.474 0.416-0.073 0.143-0.073 0.366 0.003 0.512 0.125 0.238 0.296 0.354 0.757 0.519 0.436 0.155 0.519 0.208 0.858 0.569 0.258 0.276 0.329 0.334 0.487 0.411 0.206 0.103 0.446 0.138 0.624 0.088 0.15-0.040 0.286-0.166 0.364-0.336l0.065-0.148 0.073 0.098c0.281 0.379 0.677 0.376 0.971-0.010 0.048-0.068 0.166-0.261 0.258-0.434 0.226-0.424 0.323-0.542 0.69-0.84 0.396-0.326 0.587-0.524 0.67-0.705 0.058-0.125 0.063-0.163 0.053-0.369-0.013-0.271-0.060-0.384-0.223-0.529-0.133-0.123-0.266-0.181-0.494-0.218l-0.181-0.030 0.196-0.078c0.504-0.206 0.873-0.502 1.023-0.833 0.033-0.068 0.073-0.211 0.088-0.316 0.030-0.183 0.020-0.298-0.043-0.517l-0.018-0.060 0.291 0.020c0.321 0.018 0.369 0.005 0.369-0.11 0-0.035-0.048-0.258-0.105-0.492-0.095-0.389-0.105-0.459-0.105-0.755-0.002-0.323-0.002-0.329 0.115-0.68 0.201-0.599 0.221-0.95 0.068-1.259-0.088-0.178-0.188-0.261-0.381-0.308-0.173-0.043-0.386-0.018-0.908 0.105-0.401 0.095-0.487 0.105-0.777 0.108-0.494 0.003-0.69-0.065-0.69-0.243 0-0.1 0.093-0.221 0.178-0.231 0.035-0.005 0.105-0.038 0.158-0.073 0.246-0.166 0.594-0.183 1.329-0.063 0.775 0.125 1.093 0.083 1.329-0.178 0.203-0.226 0.291-0.517 0.291-0.978 0-0.404-0.050-0.727-0.241-1.555-0.075-0.341-0.088-0.632-0.025-0.755 0.023-0.043 0.040-0.11 0.040-0.145 0-0.038 0.023-0.085 0.050-0.11 0.028-0.023 0.050-0.063 0.050-0.085 0-0.1-0.023-0.105-0.364-0.068-0.181 0.018-0.602 0.035-0.94 0.035s-0.692 0.013-0.79 0.025c-0.534 0.078-0.94 0.261-1.186 0.539-0.243 0.276-0.359 0.627-0.406 1.241-0.043 0.557-0.123 0.82-0.293 0.983-0.218 0.208-0.577 0.186-0.675-0.043-0.060-0.148-0.043-0.441 0.055-0.93 0.078-0.381 0.088-0.482 0.078-0.667-0.025-0.394-0.203-0.665-0.504-0.765l-0.073-0.023 0.145-0.083c0.183-0.105 0.361-0.281 0.439-0.441 0.058-0.113 0.063-0.155 0.063-0.451 0-0.291-0.005-0.339-0.058-0.434-0.073-0.135-0.236-0.256-0.514-0.371-0.419-0.176-0.512-0.271-0.634-0.65-0.080-0.248-0.166-0.376-0.308-0.459-0.103-0.060-0.14-0.068-0.329-0.065-0.163 0-0.253 0.018-0.384 0.065-0.514 0.196-1.113 0.732-1.352 1.216-0.085 0.176-0.123 0.466-0.075 0.584 0.023 0.050 0.028 0.030 0.028-0.123 0.003-0.158 0.015-0.206 0.083-0.336 0.211-0.394 1.011-1.018 1.46-1.136 0.166-0.045 0.253-0.043 0.411 0.002 0.243 0.073 0.341 0.203 0.434 0.574 0.068 0.271 0.176 0.456 0.326 0.557 0.063 0.043 0.233 0.125 0.376 0.186 0.411 0.176 0.502 0.298 0.386 0.529-0.153 0.303-0.494 0.484-1.209 0.634-0.288 0.060-0.311 0.063-0.474 0.028-0.095-0.020-0.376-0.050-0.624-0.065-0.248-0.013-0.559-0.035-0.69-0.045s-0.241-0.018-0.246-0.013c-0.025 0.018-0.008 0.171 0.025 0.201 0.020 0.020 0.118 0.065 0.218 0.1 0.15 0.053 0.273 0.070 0.687 0.1 0.79 0.055 0.863 0.073 1.204 0.278 0.311 0.188 0.469 0.384 0.469 0.584 0 0.176-0.053 0.238-0.303 0.364-0.186 0.095-0.276 0.163-0.512 0.389-0.459 0.439-0.662 0.549-1.056 0.572-0.554 0.030-1.078-0.228-1.277-0.629-0.078-0.163-0.085-0.258-0.028-0.444 0.023-0.075 0.048-0.251 0.053-0.389 0.013-0.261-0.005-0.248-0.063 0.045-0.070 0.349-0.359 0.735-0.667 0.89-0.466 0.236-0.976 0.115-1.146-0.271-0.028-0.060-0.083-0.303-0.123-0.539-0.080-0.487-0.115-0.574-0.394-1.003-0.416-0.642-0.474-0.92-0.233-1.161 0.090-0.090 0.273-0.198 0.296-0.173 0.005 0.005-0.005 0.050-0.025 0.098-0.068 0.158-0.1 0.502-0.070 0.695 0.040 0.233 0.095 0.354 0.281 0.599 0.211 0.278 0.446 0.695 0.562 0.998 0.148 0.389 0.168 0.431 0.226 0.479 0.045 0.038 0.048 0.038 0.015 0.003-0.030-0.035-0.035-0.098-0.025-0.334 0.010-0.206 0.005-0.298-0.018-0.321-0.015-0.018-0.058-0.133-0.093-0.256-0.063-0.216-0.233-0.582-0.449-0.95-0.078-0.135-0.093-0.176-0.065-0.193 0.070-0.045 0.421-0.173 0.519-0.188s0.1-0.018 0.078-0.090c-0.010-0.040-0.108-0.183-0.213-0.313l-0.193-0.241 0.085 0.015c0.135 0.025 0.569 0.251 0.752 0.391 0.093 0.068 0.173 0.118 0.183 0.11 0.038-0.038 0.008-0.11-0.090-0.221l-0.105-0.118 0.113 0.010c0.060 0.008 0.133 0.020 0.158 0.033 0.045 0.020 0.048 0.013 0.033-0.095-0.010-0.065-0.065-0.211-0.123-0.323-0.060-0.115-0.113-0.218-0.118-0.231-0.023-0.053 0.163 0.083 0.261 0.193 0.128 0.14 0.188 0.303 0.211 0.567 0.013 0.161 0.008 0.201-0.030 0.253-0.145 0.208-0.025 0.597 0.213 0.682 0.038 0.013 0.098 0.065 0.135 0.115 0.191 0.253 0.685 0.707 0.775 0.707 0.010 0 0.013-0.033 0.008-0.073l-0.010-0.075 0.085 0.038c0.118 0.048 0.186 0.045 0.176-0.008-0.010-0.050-0.075-0.088-0.278-0.16-0.078-0.028-0.176-0.078-0.213-0.108-0.038-0.033-0.080-0.053-0.095-0.048s-0.115-0.075-0.226-0.178l-0.198-0.186 0.073-0.028c0.128-0.050 0.216-0.13 0.291-0.263 0.070-0.125 0.080-0.133 0.256-0.183 0.1-0.030 0.256-0.1 0.344-0.158 0.196-0.128 0.986-0.898 0.976-0.95-0.025-0.133-0.223 0.005-0.655 0.459-0.308 0.326-0.366 0.374-0.547 0.466-0.221 0.108-0.273 0.12-0.273 0.063 0-0.020 0.010-0.038 0.025-0.038 0.013 0 0.085-0.023 0.16-0.053 0.13-0.048 0.138-0.053 0.113-0.113-0.020-0.058-0.005-0.090 0.133-0.281 0.228-0.319 0.379-0.459 0.604-0.567 0.153-0.075 0.236-0.098 0.386-0.108 0.108-0.010 0.178-0.023 0.158-0.030-0.055-0.023-0.055-0.559 0-0.584 0.068-0.030-0.161-0.020-0.329 0.015-0.471 0.1-0.717 0.404-0.983 1.214-0.060 0.183-0.123 0.346-0.135 0.359-0.015 0.015-0.098 0.053-0.186 0.085-0.095 0.033-0.163 0.073-0.168 0.098-0.008 0.033 0.008 0.038 0.075 0.025 0.065-0.013 0.078-0.010 0.055 0.015-0.018 0.015-0.060 0.033-0.095 0.033-0.048 0.005-0.065 0.018-0.065 0.058 0 0.058-0.035 0.095-0.113 0.12-0.048 0.013-0.050 0.003-0.050-0.231v-0.243h-0.351l-0.005-0.201c-0.005-0.228-0.065-0.424-0.183-0.587-0.075-0.103-0.311-0.258-0.374-0.248-0.020 0.005-0.088-0.048-0.15-0.113-0.090-0.098-0.105-0.125-0.075-0.145 0.070-0.043 0.339-0.12 0.532-0.15l0.193-0.030v-0.539l-0.118 0.013c-0.652 0.055-0.855 0.158-0.95 0.474-0.050 0.168-0.045 0.517 0.013 0.717 0.058 0.213 0.035 0.206-0.213-0.073-0.334-0.371-0.439-0.544-0.441-0.712-0.003-0.271 0.283-0.399 0.895-0.399 0.469 0 0.627-0.033 0.978-0.196 0.359-0.168 0.537-0.196 0.705-0.11 0.263 0.135 0.344 0.361 0.301 0.845l-0.015 0.176 0.050-0.103c0.166-0.344 0.025-0.943-0.271-1.151-0.1-0.068-0.128-0.075-0.301-0.075-0.178 0-0.216 0.010-0.487 0.13-0.331 0.15-0.489 0.181-0.91 0.183-0.461 0.002-0.81 0.108-0.963 0.293l-0.073 0.088-0.050-0.161c-0.128-0.391-0.14-0.471-0.143-0.885 0-0.476 0.045-0.677 0.236-1.081 0.178-0.374 0.223-0.436 0.873-1.209 0.439-0.522 0.599-0.792 0.782-1.322l0.105-0.301 0.166-0.085c0.256-0.133 0.702-0.419 0.925-0.594 0.409-0.316 0.65-0.667 0.712-1.033 0.075-0.451-0.163-0.853-0.522-0.878-0.424-0.030-0.715 0.236-0.717 0.655 0 0.218 0.035 0.293 0.133 0.293s0.115-0.060 0.053-0.181c-0.068-0.13-0.063-0.181 0.025-0.256 0.163-0.138 0.542-0.183 0.745-0.093 0.138 0.063 0.188 0.145 0.188 0.303-0.003 0.233-0.153 0.474-0.474 0.755-0.223 0.196-1.123 0.795-1.154 0.767-0.005-0.008 0.015-0.158 0.048-0.336 0.050-0.281 0.058-0.401 0.058-0.973 0-0.582-0.005-0.682-0.058-0.94-0.123-0.612-0.303-1.033-0.913-2.124-0.617-1.103-0.825-1.698-0.787-2.265 0.023-0.384 0.118-0.65 0.313-0.898 0.329-0.414 0.938-0.532 1.244-0.246 0.216 0.203 0.1 0.451-0.301 0.647-0.228 0.11-0.256 0.13-0.334 0.231-0.035 0.045-0.055 0.108-0.055 0.171 0 0.098 0 0.1 0.083 0.083 0.379-0.083 0.662-0.268 0.76-0.502 0.023-0.055 0.048-0.193 0.055-0.308 0.023-0.379-0.103-0.657-0.356-0.787-0.143-0.073-0.391-0.085-0.557-0.025zM5.467 8.845c-0.003 0.040-0.233 0.454-0.369 0.655-0.075 0.115-0.273 0.379-0.441 0.589-0.361 0.454-0.587 0.792-0.72 1.076-0.326 0.7-0.356 1.507-0.083 2.25 0.063 0.168 0.090 0.291 0.095 0.409 0.010 0.253 0.133 0.489 0.464 0.875 0.1 0.118 0.105 0.13 0.050 0.115-0.035-0.010-0.128-0.018-0.206-0.018h-0.143l-0.308-0.308c-0.419-0.414-0.647-0.752-0.85-1.264-0.198-0.499-0.268-0.993-0.186-1.324 0.023-0.098 0.093-0.281 0.15-0.406 0.201-0.429 0.449-0.762 1.111-1.502 0.186-0.206 0.386-0.441 0.449-0.524 0.125-0.166 0.238-0.248 0.599-0.444 0.138-0.073 0.271-0.145 0.298-0.163 0.060-0.035 0.088-0.038 0.088-0.015zM5.976 15.855c-0.008 0.088-0.018 0.16-0.023 0.166-0.003 0.005-0.035-0.010-0.068-0.033-0.118-0.075-0.11-0.153 0.023-0.241 0.040-0.025 0.075-0.048 0.078-0.048 0.005 0 0 0.070-0.010 0.155zM14.355 16.499c-0.023 0.201 0.025 0.569 0.13 1.033 0.181 0.8 0.191 0.86 0.193 1.139 0.008 0.587-0.201 0.91-0.657 1.016-0.153 0.035-0.471 0.025-1.091-0.038-0.567-0.058-0.85-0.010-1.093 0.186-0.050 0.040-0.135 0.095-0.193 0.123-0.186 0.095-0.278 0.288-0.236 0.484 0.015 0.060 0.023 0.11 0.020 0.115-0.005 0.003-0.103-0.033-0.218-0.080-0.251-0.1-0.512-0.15-0.692-0.128-0.163 0.018-0.211 0.038-0.211 0.078 0 0.020 0.063 0.035 0.186 0.048 0.273 0.025 0.502 0.095 0.913 0.288 0.391 0.181 0.762 0.316 0.815 0.296 0.018-0.008 0.013-0.015-0.013-0.015-0.033-0.003-0.045-0.023-0.045-0.075 0-0.065 0.010-0.075 0.083-0.085 0.050-0.005 0.028-0.013-0.070-0.018-0.143-0.005-0.135-0.008 0.15-0.050 0.166-0.023 0.459-0.080 0.652-0.123 0.792-0.183 1.129-0.115 1.216 0.248 0.045 0.186 0.015 0.381-0.12 0.79l-0.118 0.351v0.439c0.002 0.366 0.010 0.479 0.058 0.69 0.033 0.138 0.065 0.286 0.073 0.329l0.013 0.078-0.356 0.013c-0.208 0.008-0.364 0.025-0.374 0.040-0.020 0.033-0.542-0.143-0.692-0.233-0.13-0.075-0.243-0.198-0.434-0.466-0.188-0.263-0.291-0.356-0.507-0.459-0.148-0.070-0.186-0.078-0.401-0.078-0.206 0-0.258 0.010-0.381 0.068-0.080 0.038-0.201 0.12-0.271 0.186l-0.125 0.118-0.173-0.118c-0.223-0.153-0.391-0.331-0.474-0.512-0.073-0.153-0.080-0.266-0.053-0.895 0.008-0.181 0-0.266-0.023-0.301-0.028-0.043-0.030-0.030-0.018 0.098 0.008 0.085-0.002 0.283-0.028 0.464-0.023 0.176-0.035 0.409-0.030 0.524 0.010 0.188 0.023 0.231 0.135 0.451 0.088 0.178 0.166 0.286 0.278 0.399l0.155 0.155-0.095 0.158c-0.191 0.316-0.298 0.69-0.268 0.935l0.018 0.125-0.103-0.208c-0.238-0.484-0.667-0.73-1.269-0.732-0.359 0-0.614 0.125-0.652 0.323-0.018 0.088-0.030 0.090-0.148 0.043-0.105-0.045-0.414-0.090-0.604-0.090-0.118 0-0.135 0.005-0.135 0.050 0 0.043 0.018 0.050 0.133 0.050 0.166 0 0.434 0.058 0.579 0.123 0.148 0.063 0.349 0.253 0.469 0.436 0.263 0.404 0.271 0.888 0.020 1.078-0.123 0.090-0.231 0.13-0.667 0.241-0.609 0.158-0.642 0.178-1.091 0.73-0.273 0.334-0.637 0.497-1.151 0.519-0.334 0.015-0.507-0.020-0.707-0.148-0.12-0.078-0.293-0.273-0.293-0.334 0-0.018 0.030-0.095 0.065-0.176 0.080-0.176 0.090-0.389 0.025-0.584-0.025-0.073-0.050-0.128-0.055-0.123s0.003 0.045 0.018 0.090c0.043 0.123 0.015 0.396-0.053 0.539-0.058 0.12-0.058 0.12-0.090 0.060-0.045-0.085-0.11-0.424-0.11-0.569 0-0.068-0.013-0.133-0.028-0.143-0.038-0.023-0.008 0.449 0.043 0.705l0.033 0.176-0.148 0.14c-0.168 0.158-0.399 0.288-0.665 0.379-0.15 0.050-0.223 0.058-0.527 0.058-0.321-0.003-0.366-0.008-0.522-0.068-0.371-0.148-0.484-0.281-0.612-0.715-0.143-0.489-0.203-0.552-0.765-0.808-0.359-0.163-0.559-0.399-0.589-0.692-0.018-0.171 0.025-0.296 0.148-0.429 0.125-0.135 0.256-0.211 0.509-0.293 0.459-0.15 0.808-0.191 1.843-0.213 0.712-0.015 0.81-0.023 0.83-0.060 0.013-0.025 0.043-0.035 0.073-0.028 0.038 0.010 0.050 0 0.050-0.038 0-0.080-0.251-0.145-0.316-0.080-0.018 0.018-0.098 0.018-0.251 0-0.123-0.013-0.334-0.025-0.469-0.025-0.228 0-0.248-0.005-0.261-0.053-0.010-0.035-0.11-0.098-0.344-0.211-0.241-0.118-0.369-0.198-0.474-0.298l-0.148-0.135 0.060-0.038c0.033-0.020 0.143-0.085 0.246-0.143 0.246-0.135 0.301-0.193 0.469-0.464 0.075-0.125 0.173-0.261 0.213-0.303l0.073-0.078 0.186 0.068c0.67 0.251 1.349 0.85 1.505 1.334 0.043 0.128 0.088 0.211 0.088 0.155 0-0.035-0.113-0.341-0.163-0.439-0.243-0.479-0.953-1.063-1.409-1.164-0.045-0.008-0.083-0.025-0.083-0.038 0-0.018 0.15-0.098 0.251-0.133 0.033-0.013 0.033-0.015 0-0.015-0.033-0.003-0.038-0.053-0.033-0.316 0.005-0.354 0.008-0.351-0.183-0.266-0.155 0.070-0.276 0.191-0.441 0.439-0.216 0.323-0.276 0.379-0.572 0.529-0.411 0.208-0.487 0.319-0.484 0.715 0.002 0.143 0.018 0.281 0.040 0.344 0.020 0.060 0.028 0.108 0.018 0.108s-0.103-0.083-0.206-0.183c-0.203-0.198-0.298-0.361-0.316-0.542-0.020-0.218 0.125-0.316 0.559-0.379 0.431-0.063 0.574-0.163 0.893-0.632 0.115-0.168 0.268-0.369 0.341-0.446 0.313-0.339 0.657-0.386 1.136-0.155 0.502 0.243 0.8 0.782 0.915 1.65 0.020 0.15 0.038 0.329 0.040 0.399 0.003 0.068 0.013 0.158 0.025 0.201 0.035 0.123 0.003-0.68-0.038-0.915-0.048-0.278-0.063-0.446-0.043-0.456 0.008-0.005 0.035-0.073 0.060-0.15 0.025-0.080 0.1-0.228 0.171-0.331 0.296-0.444 0.775-0.722 1.176-0.685 0.256 0.023 0.356 0.088 0.727 0.466 0.381 0.389 0.474 0.446 0.915 0.569 0.341 0.093 0.539 0.186 0.66 0.306 0.15 0.15 0.191 0.241 0.193 0.431 0 0.196-0.065 0.329-0.258 0.507-0.276 0.258-0.92 0.484-1.761 0.614-0.306 0.045-1.394 0.063-1.587 0.025l-0.093-0.020v0.088c0 0.083 0.008 0.090 0.183 0.176 0.098 0.050 0.263 0.108 0.364 0.128 0.77 0.158 2.337-0.196 2.821-0.64 0.416-0.381 0.567-0.935 0.364-1.352l-0.055-0.113 0.166-0.15c0.105-0.098 0.308-0.238 0.574-0.389 0.592-0.344 0.752-0.482 1.412-1.219 0.647-0.72 1.342-1.397 2.199-2.137 0.394-0.341 0.607-0.579 0.725-0.815 0.095-0.193 0.118-0.271 0.085-0.303-0.008-0.008-0.080 0.073-0.161 0.178-0.168 0.223-0.288 0.341-0.74 0.732-0.765 0.662-1.344 1.251-2.217 2.252-0.281 0.326-0.765 0.808-0.808 0.808-0.008 0-0.035-0.108-0.060-0.241-0.085-0.482-0.288-0.735-0.94-1.184-0.186-0.125-0.379-0.266-0.426-0.306l-0.088-0.075 0.301-0.296c0.256-0.251 0.336-0.316 0.539-0.421 0.163-0.085 0.256-0.15 0.293-0.208 0.201-0.296 0.11-0.772-0.208-1.106-0.093-0.098-0.13-0.153-0.108-0.16 0.208-0.060 0.231-0.060 0.369-0.025 0.266 0.070 0.436 0.203 0.537 0.424 0.080 0.176 0.075 0.477-0.015 0.878-0.12 0.529-0.115 0.958 0.015 1.234 0.135 0.288 0.346 0.339 0.622 0.15l0.113-0.078-0.105 0.125c-0.135 0.163-0.308 0.321-0.404 0.371-0.178 0.090-0.291 0.033-0.492-0.246-0.231-0.323-0.569-0.562-0.93-0.655-0.344-0.088-0.434-0.013-0.118 0.1 0.401 0.14 0.705 0.374 1.008 0.777 0.098 0.13 0.206 0.258 0.243 0.288 0.191 0.15 0.446-0.020 0.933-0.627 0.115-0.145 0.196-0.251 0.176-0.233-0.030 0.025-0.035 0.005-0.030-0.118 0-0.080 0.015-0.168 0.030-0.198 0.058-0.105 0.008-0.048-0.108 0.123-0.063 0.095-0.12 0.176-0.128 0.176-0.005 0 0.005-0.038 0.025-0.083 0.068-0.16 0.113-0.396 0.163-0.823 0.080-0.685 0.161-0.92 0.396-1.181 0.158-0.171 0.321-0.278 0.567-0.374 0.329-0.128 0.572-0.155 1.407-0.158 0.619-0.005 0.772-0.013 0.865-0.045 0.063-0.023 0.123-0.040 0.133-0.043s0.013 0.065 0.002 0.145zM6.242 18.375c0.191 0.376 0.519 0.592 0.998 0.66 0.306 0.040 0.665-0.025 0.88-0.16l0.088-0.055 0.123 0.12c0.068 0.068 0.283 0.241 0.479 0.389 0.552 0.419 0.705 0.589 0.823 0.923 0.083 0.236 0.098 0.356 0.050 0.396-0.023 0.020-0.208 0.14-0.416 0.271-0.266 0.166-0.436 0.291-0.577 0.429-0.11 0.108-0.203 0.196-0.208 0.196s-0.045-0.028-0.085-0.065c-0.128-0.105-0.296-0.178-0.672-0.286-0.198-0.055-0.419-0.133-0.487-0.171-0.078-0.040-0.246-0.188-0.429-0.374-0.236-0.241-0.334-0.321-0.451-0.376-0.487-0.223-1.041 0.013-1.429 0.614-0.12 0.188-0.226 0.421-0.251 0.564-0.010 0.053-0.028 0.088-0.038 0.075-0.035-0.035-0.125-0.479-0.143-0.68-0.018-0.241 0.023-0.494 0.113-0.692 0.038-0.083 0.166-0.283 0.286-0.446 0.12-0.166 0.251-0.356 0.293-0.429 0.083-0.145 0.203-0.484 0.203-0.574 0-0.045 0.028-0.070 0.125-0.115 0.168-0.078 0.396-0.293 0.502-0.477l0.088-0.148 0.030 0.133c0.018 0.073 0.065 0.198 0.105 0.278zM11.566 22.721c0.303 0.093 0.444 0.228 0.742 0.715 0.163 0.263 0.296 0.356 0.619 0.426 0.456 0.1 0.614 0.221 0.614 0.474 0 0.238-0.171 0.469-0.527 0.705-0.303 0.203-0.7 0.341-1.562 0.549-0.055 0.013-0.070 0.030-0.063 0.073 0.013 0.085 0.123 0.12 0.404 0.13 0.76 0.023 1.134 0.168 1.287 0.502 0.093 0.198 0.073 0.331-0.073 0.487-0.045 0.045-0.238 0.211-0.431 0.366-0.469 0.374-0.624 0.544-0.79 0.868-0.278 0.544-0.426 0.722-0.652 0.775-0.145 0.035-0.251 0.018-0.394-0.065-0.176-0.1-0.236-0.203-0.273-0.469-0.020-0.125-0.088-0.429-0.155-0.67l-0.118-0.439-0.008 0.276c-0.010 0.351 0.030 0.645 0.12 0.918 0.083 0.253 0.075 0.341-0.053 0.487-0.1 0.113-0.213 0.148-0.439 0.133-0.296-0.020-0.461-0.115-0.815-0.471-0.329-0.331-0.424-0.394-0.888-0.577-0.406-0.16-0.547-0.238-0.642-0.344-0.133-0.153-0.080-0.283 0.183-0.461 0.083-0.055 0.153-0.098 0.16-0.093 0.005 0.005-0.003 0.050-0.015 0.098-0.033 0.108-0.033 0.401-0.003 0.482 0.023 0.058 0.038 0.063 0.283 0.073 0.341 0.015 0.454 0.065 0.682 0.303 0.098 0.1 0.163 0.163 0.148 0.143s-0.033-0.14-0.038-0.268c-0.008-0.201-0.002-0.226 0.030-0.201 0.020 0.015-0.035-0.048-0.125-0.14-0.088-0.093-0.196-0.183-0.238-0.206l-0.080-0.035 0.236-0.243c0.218-0.223 0.236-0.248 0.228-0.331-0.005-0.070-0.020-0.093-0.063-0.105-0.048-0.010-0.025-0.030 0.13-0.108 0.181-0.093 0.188-0.103 0.188-0.186 0-0.085-0.002-0.085-0.080-0.070-0.145 0.028-0.401 0.118-0.69 0.238-0.181 0.078-0.291 0.11-0.313 0.098-0.018-0.013-0.153-0.063-0.301-0.11-0.291-0.098-0.449-0.196-0.509-0.313-0.038-0.075-0.038-0.075 0.030-0.103 0.038-0.015 0.213-0.065 0.391-0.113 0.484-0.128 0.637-0.226 0.762-0.482 0.065-0.133 0.070-0.163 0.070-0.444-0.002-0.268-0.010-0.323-0.078-0.514-0.085-0.243-0.216-0.456-0.361-0.587-0.055-0.050-0.1-0.1-0.1-0.113 0-0.043 0.15-0.15 0.246-0.178 0.243-0.068 0.797 0.008 1.096 0.148 0.366 0.171 0.552 0.449 0.665 1.003 0.040 0.191 0.090 0.389 0.115 0.444 0.023 0.053 0.050 0.153 0.060 0.223 0.015 0.125 0.015 0.123 0.035-0.085 0.013-0.12 0.013-0.216-0.002-0.226-0.013-0.008-0.060-0.163-0.105-0.341-0.068-0.266-0.083-0.374-0.085-0.589 0-0.406 0.113-0.662 0.444-1.021 0.206-0.221 0.424-0.376 0.614-0.436 0.183-0.058 0.288-0.058 0.484 0.003zM2.076 23.483c0.008 0.008-0.033 0.015-0.088 0.015-0.068 0-0.115-0.015-0.143-0.048-0.045-0.048-0.043-0.048 0.085-0.015 0.073 0.020 0.138 0.040 0.145 0.048zM4.529 26.912c0.11 0.113 0.303 0.226 0.441 0.261 0.073 0.020 0.11 0.1 0.183 0.414 0.060 0.261 0.053 0.268-0.103 0.113-0.301-0.293-0.878-0.569-1.374-0.652l-0.095-0.015 0.095-0.053c0.15-0.078 0.356-0.246 0.471-0.376l0.1-0.118 0.083 0.155c0.045 0.085 0.135 0.208 0.198 0.271zM8.895 26.739c-0.005 0.033-0.010 0.013-0.010-0.043-0.002-0.055 0.002-0.080 0.010-0.058 0.005 0.025 0.005 0.070 0 0.1zM10.37 28.063c0.010 0.105 0.008 0.123-0.013 0.080-0.035-0.083-0.125-0.537-0.123-0.624 0.002-0.093 0.115 0.366 0.135 0.544z"></path>
<path d="M5.801 20.584c-0.125 0.068-0.497 0.394-0.609 0.534-0.065 0.083-0.1 0.153-0.1 0.201 0 0.040 0.005 0.073 0.010 0.073s0.075-0.030 0.155-0.068c0.201-0.093 0.401-0.095 0.572-0.008 0.143 0.073 0.356 0.293 0.466 0.489 0.043 0.075 0.108 0.173 0.143 0.213 0.065 0.080 0.231 0.208 0.198 0.155-0.030-0.050-0.018-0.993 0.013-1.006 0.015-0.005-0.015-0.033-0.068-0.063-0.063-0.035-0.145-0.125-0.238-0.266-0.080-0.118-0.178-0.233-0.216-0.256-0.088-0.055-0.223-0.055-0.326 0z"></path>
<path d="M10.307 20.65c0 0.058 0.226 0.158 0.707 0.316 0.682 0.223 1.362 0.599 1.745 0.966 0.226 0.213 0.476 0.582 0.762 1.126 0.166 0.319 0.211 0.384 0.216 0.331 0.013-0.098-0.055-0.286-0.233-0.655-0.376-0.78-0.84-1.234-1.678-1.648-0.316-0.153-0.574-0.241-1.093-0.369-0.173-0.043-0.339-0.083-0.369-0.093-0.043-0.013-0.058-0.005-0.058 0.025z"></path>
<path d="M10.107 20.87c0 0.283 0.108 0.707 0.228 0.87 0.163 0.226 0.366 0.313 0.95 0.416 0.539 0.095 0.722 0.16 0.903 0.323l0.088 0.078-0.070-0.078c-0.068-0.075-0.073-0.093-0.075-0.334-0.005-0.211 0.002-0.253 0.033-0.256 0.020 0-0.060-0.038-0.178-0.085-0.301-0.118-0.579-0.153-0.93-0.113-0.323 0.038-0.434 0.025-0.584-0.060-0.176-0.103-0.311-0.391-0.313-0.667 0-0.048-0.013-0.105-0.025-0.125-0.020-0.030-0.025-0.023-0.025 0.030z"></path>
<path d="M5.718 22.297c-0.090 0.113-0.278 0.316-0.419 0.449-0.143 0.135-0.258 0.258-0.258 0.276 0 0.050 0.095-0.023 0.354-0.268 0.306-0.296 0.507-0.539 0.494-0.609-0.005-0.038-0.043-0.005-0.171 0.153z"></path>
<path d="M5.793 22.593c-0.038 0.093-0.303 0.349-0.451 0.436-0.063 0.035-0.168 0.078-0.238 0.095-0.068 0.015-0.14 0.033-0.155 0.038-0.018 0.005-0.025 0.025-0.015 0.050 0.040 0.108 0.424-0.040 0.657-0.253 0.148-0.135 0.278-0.321 0.278-0.394 0-0.070-0.040-0.053-0.075 0.028z"></path>
<path d="M3.361 22.894c0 0.028 0.023 0.055 0.050 0.065 0.065 0.020 0.288 0.176 0.424 0.293 0.105 0.093 0.178 0.12 0.178 0.070 0-0.013-0.098-0.12-0.216-0.241-0.166-0.168-0.221-0.211-0.236-0.183-0.020 0.030-0.035 0.028-0.098-0.010-0.093-0.055-0.103-0.053-0.103 0.005z"></path>
<path d="M6.508 22.974c-0.055 0.010-0.206 0.020-0.331 0.020-0.188 0.003-0.233 0.010-0.233 0.040 0 0.045 0.095 0.095 0.276 0.145 0.16 0.045 0.451 0.080 0.414 0.050-0.013-0.010-0.025-0.070-0.025-0.133s0.013-0.12 0.025-0.13c0.030-0.023 0.013-0.023-0.125 0.008z"></path>
<path d="M4.79 23.19c-0.045 0.068-0.12 0.171-0.166 0.233-0.050 0.070-0.075 0.128-0.063 0.145 0.018 0.028 0.186-0.221 0.301-0.441 0.048-0.090 0.018-0.063-0.073 0.063z"></path>
<path d="M4.213 23.401c-0.226 0.065-0.276 0.13-0.276 0.359 0 0.316 0.171 0.499 0.444 0.477 0.073-0.005 0.16-0.023 0.198-0.035 0.038-0.015 0.068-0.023 0.070-0.020 0.030 0.058 0.201 0.246 0.223 0.246 0.118 0 0.632 0.316 1.159 0.712 0.181 0.135 0.253 0.178 0.258 0.15 0.013-0.055-0.043-0.108-0.331-0.331-0.311-0.238-0.71-0.479-0.94-0.569-0.098-0.038-0.206-0.1-0.243-0.14l-0.068-0.070 0.11-0.103c0.108-0.098 0.14-0.105 0.253-0.063 0.023 0.010 0.038 0 0.038-0.023s-0.040-0.053-0.085-0.068c-0.048-0.015-0.093-0.043-0.1-0.063-0.015-0.043-0.060-0.035-0.208 0.035-0.176 0.083-0.213 0.075-0.211-0.043l0.005-0.098-0.123-0.018c-0.13-0.018-0.153-0.045-0.075-0.088 0.065-0.033 0.16-0.033 0.198 0.005 0.048 0.048 0.065 0.003 0.030-0.073-0.018-0.040-0.033-0.098-0.033-0.133-0.003-0.058-0.045-0.098-0.105-0.095-0.013 0-0.098 0.023-0.188 0.048zM4.103 23.692c-0.008 0.025-0.003 0.088 0.008 0.138 0.025 0.105 0.015 0.115-0.053 0.053-0.050-0.045-0.058-0.113-0.020-0.186 0.033-0.060 0.083-0.063 0.065-0.005z"></path>
<path d="M4.757 23.689c-0.053 0.053-0.013 0.085 0.103 0.085 0.093 0 0.123-0.010 0.123-0.038 0-0.020-0.023-0.038-0.053-0.038s-0.075-0.008-0.103-0.015c-0.028-0.008-0.060-0.005-0.070 0.005z"></path>
<path d="M1.956 23.942c-0.567 0.065-0.943 0.329-0.993 0.692-0.035 0.251 0.073 0.406 0.401 0.577 0.336 0.173 0.469 0.326 0.579 0.67 0.060 0.183 0.178 0.419 0.263 0.524 0.070 0.083 0.291 0.253 0.331 0.253 0.010 0 0.020-0.108 0.020-0.238 0-0.168 0.010-0.238 0.030-0.238 0.015 0-0.038-0.040-0.12-0.088-0.223-0.133-0.351-0.286-0.499-0.602-0.15-0.321-0.218-0.391-0.519-0.542-0.319-0.16-0.391-0.276-0.251-0.404 0.088-0.083 0.145-0.11 0.401-0.198 0.288-0.098 0.564-0.148 0.843-0.15 0.125-0.003 0.203-0.010 0.176-0.015-0.040-0.008-0.058-0.033-0.065-0.098-0.010-0.075-0.005-0.083 0.043-0.073 0.043 0.013 0.043 0.010 0.010-0.010-0.085-0.055-0.424-0.085-0.65-0.060z"></path>
<path d="M3.413 24.113c-0.193 0.103-0.253 0.155-0.253 0.218 0 0.025 0.005 0.045 0.008 0.045 0.005 0 0.103-0.058 0.218-0.125 0.115-0.070 0.218-0.125 0.231-0.125 0.010 0 0.020-0.023 0.020-0.050 0-0.068-0.038-0.063-0.223 0.038z"></path>
<path d="M3.787 24.128c-0.060 0.108-0.063 0.108-0.070 0.040-0.005-0.038-0.018-0.068-0.030-0.068s-0.105 0.093-0.206 0.206c-0.233 0.263-0.532 0.562-0.657 0.66-0.078 0.063-0.093 0.088-0.080 0.133 0.018 0.053 0.020 0.053 0.098 0.013 0.148-0.075 0.241-0.163 0.492-0.456 0.135-0.16 0.276-0.319 0.313-0.351l0.065-0.060-0.073 0.198c-0.078 0.211-0.158 0.622-0.135 0.682 0.008 0.020 0.053-0.12 0.1-0.311s0.125-0.429 0.173-0.532c0.1-0.208 0.108-0.323 0.010-0.153z"></path>
<path d="M3.905 24.65c-0.010 0.211-0.015 0.389-0.010 0.396 0.020 0.020 0.048-0.396 0.038-0.594-0.005-0.148-0.013-0.108-0.028 0.198z"></path>
<path d="M4.153 24.396c-0.068 0.138-0.14 0.356-0.14 0.416 0 0.030 0.028-0.020 0.060-0.11s0.078-0.211 0.103-0.271c0.055-0.135 0.038-0.163-0.023-0.035z"></path>
<path d="M4.364 24.396c0 0.025 0.055 0.075 0.138 0.125 0.334 0.201 0.667 0.504 0.991 0.908 0.196 0.243 0.213 0.258 0.221 0.193 0.018-0.153-0.326-0.599-0.67-0.87-0.211-0.166-0.592-0.401-0.647-0.401-0.018 0-0.033 0.020-0.033 0.045z"></path>
<path d="M5.166 24.386c0 0.023 0.058 0.038 0.208 0.048 0.241 0.018 0.584 0.113 0.8 0.221 0.12 0.060 0.155 0.070 0.173 0.043 0.013-0.018 0.008-0.045-0.010-0.063-0.050-0.048-0.396-0.178-0.622-0.233-0.248-0.060-0.549-0.068-0.549-0.015z"></path>
<path d="M4.268 25.103c0 0.035 0.005 0.048 0.013 0.030 0.005-0.015 0.005-0.045 0-0.063-0.008-0.015-0.013-0.003-0.013 0.033z"></path>
<path d="M4.587 25.116c-0.015 0.211 0.013 0.863 0.040 0.968 0.065 0.243 0.198 0.389 0.474 0.514 0.128 0.058 0.168 0.065 0.339 0.055 0.14-0.010 0.226-0.030 0.319-0.078 0.143-0.073 0.456-0.319 0.574-0.446 0.043-0.048 0.053-0.065 0.025-0.043-0.050 0.040-0.050 0.040-0.045-0.256l0.005-0.298-0.155 0.113c-0.416 0.306-0.795 0.384-1.131 0.226-0.236-0.108-0.298-0.208-0.329-0.512-0.013-0.12-0.033-0.201-0.065-0.238-0.045-0.053-0.045-0.053-0.050-0.005z"></path>
<path d="M4.339 25.367c0 0.013 0.013 0.043 0.025 0.063s0.025 0.025 0.025 0.013c0-0.015-0.013-0.043-0.025-0.063s-0.025-0.028-0.025-0.013z"></path>
<path d="M6.503 19.072c0.030 0.223 0.178 0.838 0.238 0.986 0.153 0.384 0.529 0.634 1.129 0.747 0.722 0.14 0.898 0.198 0.925 0.308l0.015 0.065 0.020-0.075c0.070-0.256-0.153-0.426-0.742-0.564-0.411-0.098-0.609-0.16-0.815-0.263-0.354-0.178-0.502-0.386-0.612-0.865-0.038-0.158-0.090-0.323-0.118-0.364l-0.053-0.075 0.013 0.1z"></path>
<path d="M7.248 19.263c0 0.183 0.514 0.657 0.878 0.81l0.088 0.035-0.013-0.198c-0.010-0.16-0.005-0.198 0.025-0.206 0.020-0.003-0.058-0.033-0.176-0.065-0.278-0.075-0.431-0.155-0.589-0.306-0.14-0.133-0.213-0.155-0.213-0.070z"></path>
<path d="M11.218 22.889c-0.431 0.15-0.915 1.053-0.908 1.685 0 0.12 0.005 0.133 0.028 0.078 0.085-0.208 0.138-0.291 0.351-0.539 0.13-0.153 0.286-0.319 0.346-0.369 0.183-0.158 0.424-0.211 0.584-0.13 0.053 0.028 0.070 0.030 0.050 0.008-0.045-0.045-0.048-0.712-0.002-0.685 0.018 0.010 0.020 0.008 0.010-0.010-0.023-0.035-0.181-0.080-0.278-0.078-0.040 0-0.123 0.018-0.181 0.040z"></path>
<path d="M8.69 23.837c-0.055 0.033-0.143 0.083-0.196 0.113-0.085 0.048-0.095 0.063-0.080 0.12 0.018 0.073 0.329 0.404 0.454 0.482 0.043 0.028 0.125 0.065 0.181 0.085l0.103 0.038-0.005-0.401c-0.002-0.251 0.005-0.399 0.020-0.399 0.015-0.003-0.015-0.023-0.063-0.050-0.125-0.068-0.291-0.063-0.414 0.013z"></path>
<path d="M11.473 24.286c-0.672 0.507-0.966 0.845-1.003 1.156l-0.013 0.1 0.033-0.103c0.080-0.238 0.268-0.436 0.87-0.905 0.446-0.346 0.534-0.434 0.522-0.504-0.005-0.040-0.073 0-0.409 0.256z"></path>
<path d="M11.23 24.88c-0.138 0.113-0.497 0.539-0.497 0.592 0 0.028 0.113-0.068 0.313-0.268 0.173-0.173 0.313-0.334 0.313-0.356 0-0.063-0.023-0.055-0.13 0.033z"></path>
<path d="M11.175 25.302c-0.053 0.053-0.090 0.115-0.085 0.135 0.010 0.055 0.246-0.12 0.246-0.186 0-0.075-0.055-0.058-0.161 0.050z"></path>
<path d="M9.743 25.309c0.018 0.055 0.161 0.296 0.176 0.296 0.023 0-0.013-0.093-0.078-0.216-0.073-0.138-0.128-0.181-0.098-0.080z"></path>
<path d="M10.566 25.485c-0.038 0.060-0.078 0.113-0.085 0.12s-0.023 0.055-0.033 0.105c-0.018 0.098-0.050 0.123-0.075 0.058-0.008-0.020-0.043-0.050-0.075-0.065-0.035-0.018-0.068-0.053-0.073-0.083-0.010-0.050-0.010-0.050-0.015 0.003-0.002 0.043-0.018 0.058-0.063 0.058-0.098 0-0.135 0.025-0.196 0.12-0.048 0.078-0.058 0.128-0.058 0.293 0.002 0.218 0.045 0.339 0.14 0.391 0.068 0.035 0.138 0.015 0.263-0.075l0.103-0.075 0.028-0.263c0.023-0.216 0.045-0.296 0.11-0.421 0.080-0.155 0.125-0.271 0.105-0.271-0.005 0-0.040 0.048-0.078 0.105zM10.132 26.107c0 0.033-0.013 0.045-0.038 0.035-0.030-0.013-0.033-0.025-0.010-0.050 0.038-0.048 0.048-0.045 0.048 0.015z"></path>
<path d="M9.304 25.429c0 0.033 0.233 0.261 0.308 0.303 0.098 0.055 0.035-0.040-0.113-0.176-0.168-0.153-0.196-0.173-0.196-0.128z"></path>
<path d="M8.757 25.51c0.015 0.098 0.569 0.356 0.895 0.416 0.113 0.020 0.128 0.018 0.128-0.020 0-0.028-0.035-0.053-0.105-0.073-0.060-0.018-0.145-0.053-0.191-0.080-0.048-0.028-0.093-0.043-0.105-0.035-0.010 0.005-0.15-0.050-0.311-0.125s-0.298-0.138-0.306-0.138c-0.008 0-0.010 0.025-0.005 0.055z"></path>
<path d="M7.649 26.004c0 0.095 0.213 0.228 0.416 0.261l0.105 0.018 0.010-0.098 0.008-0.098-0.155-0.013c-0.085-0.010-0.201-0.038-0.256-0.068-0.123-0.063-0.128-0.063-0.128-0.003z"></path>
<path d="M10.608 26.004c-0.063 0.018-0.105 0.103-0.050 0.103 0.045 0 0.176-0.075 0.176-0.1 0-0.028-0.033-0.028-0.125-0.003z"></path>
<path d="M11.468 26.084c-0.058 0.058-0.038 0.183 0.035 0.251 0.038 0.033 0.055 0.043 0.040 0.023-0.018-0.023-0.033-0.098-0.038-0.171-0.005-0.108-0.013-0.128-0.038-0.103z"></path>
<path d="M9.412 26.099c-0.103 0.013-0.115 0.083-0.013 0.083 0.095 0 0.256-0.048 0.256-0.075 0-0.025-0.085-0.028-0.243-0.008z"></path>
<path d="M10.809 26.32c0 0.048 0.035 0.065 0.351 0.176 0.145 0.050 0.301 0.113 0.346 0.14 0.103 0.058 0.105 0.058 0.105 0 0-0.053-0.166-0.133-0.502-0.241-0.118-0.038-0.223-0.078-0.236-0.090-0.038-0.033-0.065-0.028-0.065 0.015z"></path>
<path d="M9.517 26.528c-0.12 0.113-0.153 0.13-0.158 0.095-0.008-0.033-0.040 0.010-0.105 0.125-0.053 0.095-0.148 0.223-0.211 0.286-0.105 0.103-0.155 0.226-0.090 0.226 0.055 0 0.198-0.158 0.276-0.306 0.048-0.088 0.113-0.181 0.148-0.208 0.035-0.025 0.11-0.090 0.163-0.143l0.098-0.095-0.015 0.13c-0.018 0.166-0.060 0.296-0.243 0.722-0.155 0.366-0.213 0.544-0.236 0.74-0.028 0.221 0.023 0.206 0.070-0.018 0.055-0.261 0.316-0.918 0.401-1.011 0.035-0.038 0.065-0.080 0.065-0.090 0-0.013 0.013-0.023 0.025-0.023 0.015 0 0.025 0.060 0.025 0.13 0 0.13 0.068 0.323 0.123 0.356 0.048 0.030 0.030-0.073-0.035-0.216-0.070-0.15-0.080-0.313-0.025-0.419 0.033-0.068 0.028-0.103-0.015-0.103-0.010 0-0.023 0.025-0.033 0.055-0.008 0.033-0.040 0.090-0.073 0.13l-0.060 0.073 0.035-0.198c0.018-0.108 0.030-0.238 0.028-0.291l-0.008-0.090-0.15 0.14z"></path>
<path d="M10.483 26.443c0 0.060 0.178 0.178 0.562 0.369 0.339 0.168 0.414 0.183 0.374 0.080-0.010-0.025-0.609-0.339-0.915-0.479-0.013-0.005-0.020 0.008-0.020 0.030z"></path>
<path d="M10.307 26.485c0 0.028 0.038 0.080 0.083 0.118 0.143 0.115 0.466 0.436 0.727 0.717l0.253 0.271-0.115 0.11c-0.098 0.090-0.135 0.11-0.213 0.11-0.133 0-0.213-0.075-0.341-0.313-0.095-0.183-0.113-0.201-0.181-0.201-0.058 0-0.078 0.013-0.083 0.055-0.010 0.070 0.181 0.652 0.273 0.838 0.198 0.396 0.484 0.313 0.782-0.231 0.038-0.070 0.060-0.12 0.048-0.113-0.015 0.008-0.030-0.020-0.035-0.060-0.010-0.060-0.005-0.070 0.025-0.045 0.025 0.023 0.040 0.020 0.058-0.008 0.033-0.053 0.028-0.078-0.038-0.16-0.048-0.060-0.055-0.085-0.035-0.138 0.023-0.060 0.020-0.060-0.020-0.020-0.043 0.043-0.065 0.023-0.487-0.389-0.376-0.374-0.632-0.594-0.687-0.594-0.008 0-0.015 0.023-0.015 0.053z"></path>
<path d="M4.043 3.453c0.005 0.028 0.055 0.053 0.158 0.075 0.080 0.018 0.176 0.058 0.206 0.088 0.070 0.065 0.1 0.043 0.068-0.050-0.030-0.088-0.166-0.155-0.319-0.155-0.1 0-0.12 0.008-0.113 0.043z"></path>
<path d="M3.9 3.714c-0.181 0.030-0.326 0.085-0.334 0.125-0.005 0.030 0.055 0.035 0.364 0.028 0.203-0.005 0.386-0.013 0.404-0.018 0.015-0.008 0.030-0.038 0.030-0.070 0-0.048-0.018-0.065-0.078-0.078-0.098-0.020-0.226-0.015-0.386 0.013z"></path>
<path d="M3.857 3.998c-0.336 0.12-0.948 0.487-0.948 0.572 0 0.030 0.013 0.045 0.033 0.038 0.015-0.008 0.158-0.070 0.313-0.14 0.155-0.073 0.386-0.158 0.512-0.196 0.196-0.055 0.261-0.063 0.474-0.053l0.248 0.013v-0.073c0-0.048-0.025-0.1-0.073-0.148-0.065-0.065-0.090-0.073-0.233-0.073-0.1 0-0.218 0.023-0.326 0.060z"></path>
<path d="M7.641 5.786c-0.043 0.040-0.005 0.090 0.158 0.223 0.241 0.196 0.273 0.253 0.301 0.562 0.030 0.361 0.060 0.349 0.043-0.018-0.020-0.404-0.065-0.494-0.374-0.717-0.1-0.073-0.105-0.075-0.128-0.050z"></path>
<path d="M8.569 5.811c-0.030 0.028-0.020 0.055 0.053 0.12 0.063 0.058 0.068 0.075 0.060 0.238-0.005 0.108 0.002 0.176 0.020 0.176 0.043 0 0.033-0.431-0.015-0.497-0.038-0.055-0.088-0.070-0.118-0.038z"></path>
<path d="M8.201 5.876c0 0.033 0.030 0.085 0.065 0.12 0.088 0.080 0.161 0.238 0.161 0.356 0 0.058 0.010 0.090 0.025 0.080 0.043-0.028 0.028-0.246-0.028-0.364-0.055-0.12-0.11-0.193-0.178-0.228-0.038-0.020-0.045-0.015-0.045 0.035z"></path>
<path d="M7.147 5.903c0 0.050 0.033 0.080 0.168 0.155 0.346 0.193 0.474 0.371 0.502 0.69 0.023 0.276 0.065 0.243 0.053-0.043-0.018-0.409-0.155-0.624-0.504-0.79-0.188-0.088-0.218-0.090-0.218-0.013z"></path>
<path d="M9.429 9.216c-0.419 0.13-0.624 0.762-0.349 1.078 0.181 0.203 0.456 0.168 0.547-0.070 0.030-0.080 0.035-0.193 0.010-0.256-0.013-0.035-0.023-0.025-0.043 0.040-0.023 0.070-0.048 0.093-0.135 0.12-0.226 0.070-0.434-0.045-0.394-0.223 0.023-0.103 0.145-0.241 0.273-0.306 0.155-0.080 0.401-0.090 0.552-0.023 0.183 0.080 0.301 0.186 0.394 0.359 0.085 0.158 0.085 0.158 0.083 0.484-0.002 0.286-0.010 0.351-0.070 0.527-0.148 0.434-0.359 0.785-0.642 1.066-0.236 0.238-0.426 0.339-0.89 0.476-0.193 0.058-0.434 0.13-0.532 0.163-0.1 0.033-0.183 0.055-0.183 0.050s0.020-0.065 0.048-0.13c0.14-0.359 0.178-0.885 0.083-1.179-0.098-0.308-0.243-0.484-0.507-0.607-0.12-0.058-0.171-0.065-0.391-0.065-0.238 0-0.258 0.005-0.376 0.075-0.171 0.108-0.248 0.248-0.248 0.464 0 0.133 0.013 0.186 0.068 0.281 0.125 0.213 0.329 0.288 0.532 0.198 0.11-0.048 0.118-0.058 0.11-0.133-0.008-0.078-0.013-0.080-0.183-0.113-0.095-0.018-0.208-0.045-0.251-0.060-0.078-0.033-0.188-0.118-0.188-0.148 0-0.010 0.070-0.055 0.158-0.103 0.14-0.075 0.173-0.083 0.356-0.083 0.65 0.008 0.983 0.384 0.89 1.001-0.030 0.196-0.103 0.449-0.166 0.567-0.018 0.038-0.088 0.098-0.153 0.138-0.176 0.103-0.354 0.281-0.429 0.424-0.048 0.098-0.065 0.171-0.073 0.326l-0.008 0.201 0.033-0.143c0.080-0.356 0.401-0.554 1.241-0.772 0.639-0.166 0.968-0.356 1.271-0.735 0.386-0.482 0.627-1.231 0.577-1.796-0.070-0.815-0.482-1.256-1.016-1.093z"></path>
<path d="M0.971 12.125c-0.258 0.050-0.369 0.098-0.369 0.161 0 0.028 0.010 0.055 0.023 0.063 0.013 0.010 0.186 0.033 0.384 0.053 0.196 0.020 0.401 0.050 0.456 0.068 0.406 0.128 0.303 0.562-0.301 1.274-0.288 0.341-0.386 0.479-0.487 0.675-0.135 0.271-0.183 0.622-0.125 0.898 0.023 0.095 0.018 0.155-0.013 0.271-0.115 0.446 0.010 1.043 0.308 1.485 0.243 0.356 0.527 0.562 1.382 0.993 0.833 0.419 1.131 0.629 1.429 1.003 0.288 0.366 0.426 0.725 0.449 1.184 0.015 0.263 0.018 0.283 0.033 0.163 0.023-0.181-0.015-0.579-0.075-0.838-0.133-0.557-0.421-1.081-0.765-1.387-0.221-0.196-0.504-0.349-1.048-0.569-0.787-0.321-0.993-0.439-1.264-0.72-0.176-0.186-0.266-0.331-0.321-0.522-0.048-0.158-0.053-0.424-0.013-0.567l0.028-0.1 0.043 0.063c0.168 0.258 0.369 0.376 0.642 0.376 0.293-0.003 0.487-0.128 0.612-0.401 0.083-0.183 0.103-0.502 0.043-0.665-0.1-0.258-0.384-0.351-0.74-0.241-0.208 0.065-0.354 0.155-0.487 0.303l-0.113 0.125-0.015-0.083c-0.018-0.095 0.015-0.311 0.073-0.469 0.063-0.181 0.145-0.301 0.492-0.732 0.344-0.429 0.492-0.682 0.562-0.96 0.043-0.173 0.048-0.434 0.010-0.572-0.030-0.115-0.145-0.248-0.256-0.301-0.123-0.058-0.356-0.070-0.577-0.030zM1.806 15.192c0.181 0.090 0.191 0.233 0.030 0.411-0.123 0.135-0.303 0.221-0.479 0.221-0.198 0-0.321-0.048-0.461-0.176l-0.123-0.115 0.153-0.14c0.118-0.11 0.191-0.155 0.311-0.193 0.201-0.063 0.451-0.068 0.569-0.008z"></path>
<path d="M6.184 15.152c-0.008 0.033-0.013 0.085-0.013 0.12 0.003 0.038 0.013 0.018 0.025-0.048 0.023-0.118 0.015-0.171-0.013-0.073z"></path>
<path d="M5.695 15.268c-0.003 0.060 0.060 0.231 0.085 0.231 0.008 0 0.003-0.023-0.013-0.048-0.013-0.028-0.035-0.093-0.048-0.145-0.015-0.060-0.023-0.075-0.025-0.038z"></path>
<path d="M5.608 15.646c-0.163 0.181-0.549 0.323-0.933 0.346-0.231 0.013-0.261 0.020-0.261 0.063 0 0.040 0.023 0.045 0.258 0.045 0.283 0 0.547-0.048 0.71-0.125 0.085-0.043 0.118-0.048 0.16-0.025 0.070 0.038 0.055 0.070-0.070 0.168-0.145 0.11-0.359 0.186-0.594 0.203-0.153 0.013-0.201 0.025-0.201 0.055 0 0.048 0.206 0.063 0.389 0.030 0.070-0.013 0.133-0.015 0.138-0.005 0.020 0.033 0.213-0.028 0.213-0.065 0-0.018 0.020-0.045 0.045-0.058s0.078-0.070 0.115-0.125c0.058-0.083 0.068-0.118 0.055-0.188-0.010-0.048-0.030-0.093-0.048-0.098-0.020-0.008-0.010-0.033 0.028-0.075 0.040-0.040 0.055-0.085 0.050-0.13l-0.008-0.068-0.048 0.053z"></path>
<path d="M7.992 15.692c-0.088 0.035-0.095 0.045-0.088 0.125 0.005 0.070 0.028 0.103 0.108 0.158 0.055 0.040 0.128 0.078 0.163 0.088 0.043 0.010 0.053 0.008 0.030-0.008-0.043-0.028-0.055-0.376-0.018-0.391 0.015-0.008-0.002-0.013-0.038-0.013s-0.105 0.018-0.158 0.040z"></path>
<path d="M6.779 15.992c-0.060 0.020-0.108 0.053-0.108 0.073 0 0.045 0.003 0.043 0.125-0.005 0.055-0.023 0.1-0.055 0.1-0.075s-0.003-0.035-0.005-0.033c-0.005 0-0.055 0.018-0.113 0.040z"></path>
<path d="M6.395 16.298c0 0.033 0.020 0.043 0.12 0.065 0.063 0.013 0.080 0.008 0.080-0.020 0-0.035-0.070-0.068-0.155-0.068-0.025 0-0.045 0.010-0.045 0.023z"></path>
<path d="M5.457 16.409c0.015 0.103 0.010 0.118-0.050 0.155-0.035 0.025-0.065 0.065-0.065 0.095 0 0.048 0.003 0.050 0.050 0.005 0.063-0.058 0.085-0.038 0.063 0.063-0.023 0.103-0.123 0.216-0.241 0.278-0.155 0.078-0.12 0.176 0.043 0.123 0.123-0.040 0.208-0.181 0.246-0.399 0.015-0.098 0.043-0.191 0.060-0.208 0.040-0.040 0.038-0.083-0.003-0.048-0.045 0.035-0.068 0.010-0.068-0.075 0-0.038-0.010-0.078-0.025-0.085-0.015-0.010-0.020 0.025-0.010 0.095z"></path>
<path d="M6.576 16.604c0.005 0.045 0.038 0.070 0.133 0.105 0.223 0.085 0.599 0.211 0.685 0.231 0.070 0.015 0.080 0.010 0.080-0.038 0-0.068-0.16-0.14-0.542-0.251-0.15-0.043-0.293-0.085-0.319-0.093-0.038-0.010-0.045 0-0.038 0.045z"></path>
<path d="M5.896 16.667c0 0.028 0.008 0.035 0.015 0.015 0.008-0.018 0.005-0.040-0.003-0.048-0.008-0.010-0.015 0.005-0.013 0.033z"></path>
<path d="M6.488 17.226c-0.028 0.133-0.020 0.354 0.018 0.532 0.095 0.446 0.419 0.777 0.8 0.818 0.128 0.013 0.411-0.013 0.356-0.033-0.015-0.008-0.020-0.143-0.013-0.374l0.013-0.364-0.088 0.018c-0.048 0.013-0.178 0.020-0.288 0.020-0.176-0.003-0.221-0.013-0.354-0.080-0.188-0.098-0.321-0.246-0.361-0.404-0.053-0.208-0.065-0.228-0.083-0.133z"></path>
<!-- number-1 -->
<path d="M16.564 25.013c-0.098 0.043-0.206 0.171-0.268 0.316-0.053 0.12-0.221 0.823-0.221 0.92 0 0.105 0.090 0.023 0.268-0.248 0.186-0.281 0.386-0.454 0.629-0.547 0.171-0.065 0.409-0.065 0.544-0.003 0.118 0.055 0.248 0.186 0.286 0.286 0.050 0.13 0.033 0.369-0.035 0.517-0.186 0.396-0.474 0.557-1.083 0.607-0.544 0.045-1.018-0.025-1.407-0.206-0.404-0.186-0.655-0.411-0.983-0.875-0.103-0.145-0.256-0.334-0.341-0.416-0.15-0.15-0.381-0.286-0.484-0.286-0.095 0-0.055 0.063 0.080 0.13 0.070 0.035 0.183 0.11 0.248 0.168 0.133 0.118 0.311 0.349 0.286 0.371-0.008 0.010 0.002 0.045 0.028 0.080 0.068 0.108 0.547 0.657 0.687 0.792 0.384 0.371 0.697 0.828 0.825 1.206 0.073 0.216 0.085 0.291 0.095 0.577 0.013 0.361-0.013 0.562-0.108 0.84-0.090 0.266-0.201 0.436-0.451 0.69-0.286 0.288-0.401 0.339-0.79 0.356-0.313 0.013-0.537-0.033-0.757-0.15-0.123-0.065-0.246-0.178-0.246-0.228 0-0.005 0.070-0.030 0.155-0.055 0.532-0.148 0.747-0.369 0.747-0.757 0-0.208-0.038-0.316-0.138-0.409-0.058-0.053-0.090-0.063-0.221-0.060-0.191 0-0.313 0.060-0.479 0.226-0.166 0.171-0.246 0.346-0.261 0.579-0.008 0.103-0.025 0.191-0.040 0.198-0.015 0.005-0.258 0.048-0.542 0.095-0.895 0.153-1.221 0.281-1.557 0.614-0.276 0.276-0.394 0.532-0.436 0.966-0.020 0.191 0.020 0.216 0.045 0.030 0.010-0.063 0.048-0.186 0.088-0.271 0.183-0.401 0.539-0.665 1.131-0.838 0.153-0.045 1.266-0.286 1.324-0.286 0.002 0 0.023 0.060 0.045 0.13 0.196 0.602 0.697 0.95 1.171 0.813 0.241-0.070 0.735-0.469 0.978-0.792 0.158-0.208 0.306-0.512 0.376-0.765 0.045-0.176 0.053-0.268 0.055-0.715 0-0.426-0.010-0.554-0.053-0.752-0.058-0.268-0.148-0.509-0.273-0.732-0.048-0.083-0.085-0.153-0.085-0.155s0.078 0.020 0.171 0.050c0.263 0.088 0.582 0.135 0.923 0.135 0.845 0 1.292-0.308 1.432-0.991 0.093-0.454-0.075-0.875-0.419-1.053-0.231-0.12-0.767-0.178-0.94-0.103zM14.119 28.94c0.193 0.103 0.043 0.354-0.311 0.517-0.125 0.058-0.446 0.16-0.502 0.16-0.030 0 0.008-0.171 0.060-0.278 0.135-0.263 0.574-0.494 0.752-0.399z"></path>
<!-- number-1 -->
<!-- <path d="M17.705 25.176c0 0.015 0.063 0.068 0.14 0.118 0.176 0.118 0.351 0.291 0.409 0.409 0.1 0.201 0.085 0.346-0.058 0.577-0.113 0.186-0.143 0.261-0.115 0.306 0.018 0.028 0.038 0.020 0.103-0.040 0.118-0.11 0.178-0.266 0.191-0.502 0.020-0.283-0.030-0.444-0.191-0.619-0.16-0.173-0.479-0.339-0.479-0.248z"></path> -->
<!-- <path d="M18.515 25.47c0.008 0.040 0.048 0.168 0.090 0.286 0.113 0.308 0.105 0.421-0.035 0.692-0.12 0.228-0.133 0.303-0.050 0.291 0.241-0.043 0.298-0.624 0.108-1.113-0.078-0.203-0.138-0.286-0.113-0.155z"></path> -->
<!-- <path d="M13.986 25.946c-0.010 0.010-0.018 0.035-0.018 0.058 0 0.028 0.008 0.030 0.028 0.010 0.015-0.015 0.025-0.040 0.018-0.058-0.005-0.015-0.018-0.020-0.028-0.010z"></path> -->
<!-- <path d="M1.246 26.019c-0.038 0.020-0.133 0.093-0.211 0.16-0.221 0.198-0.429 0.276-0.725 0.278-0.085 0-0.191 0.008-0.233 0.015-0.068 0.015-0.078 0.028-0.078 0.1 0 0.088-0.003 0.085 0.326 0.341 0.12 0.095 0.158 0.145 0.288 0.411 0.083 0.166 0.188 0.359 0.233 0.431 0.113 0.176 0.439 0.477 0.619 0.572l0.145 0.080-0.098 0.030c-0.228 0.073-0.436 0.251-0.547 0.471-0.153 0.308-0.166 0.655-0.038 1.309 0.078 0.401 0.085 0.477 0.080 0.873 0 0.236 0.002 0.431 0.010 0.431 0.005 0 0.085-0.045 0.178-0.1 0.379-0.231 0.787-0.268 1.698-0.16 0.349 0.040 0.78 0.045 0.935 0.010 0.288-0.068 0.502-0.243 0.645-0.534 0.053-0.11 0.133-0.354 0.201-0.627 0.16-0.629 0.243-0.78 0.494-0.905 0.256-0.128 0.459-0.063 0.489 0.155 0.025 0.183 0.068 0.158 0.050-0.028-0.018-0.191-0.063-0.291-0.16-0.369-0.135-0.108-0.429-0.015-0.609 0.193-0.123 0.14-0.193 0.313-0.301 0.757-0.123 0.492-0.186 0.64-0.356 0.82-0.16 0.171-0.298 0.243-0.554 0.296-0.241 0.050-0.454 0.050-0.958 0-0.813-0.083-1.234-0.053-1.545 0.105-0.068 0.033-0.125 0.060-0.13 0.060s-0.010-0.138-0.013-0.306c0-0.221-0.020-0.409-0.068-0.66-0.038-0.193-0.073-0.454-0.080-0.579-0.035-0.577 0.256-0.938 0.888-1.096 0.125-0.030 0.191-0.033 0.339-0.013 0.243 0.035 0.86 0.008 1.111-0.048 0.186-0.043 0.201-0.050 0.208-0.113 0.008-0.058-0.005-0.073-0.063-0.088-0.038-0.010-0.371-0.018-0.74-0.013-0.767 0.008-0.92-0.013-1.196-0.158-0.351-0.186-0.592-0.459-0.845-0.966-0.113-0.226-0.191-0.349-0.251-0.396-0.048-0.038-0.085-0.075-0.085-0.083 0-0.010 0.075-0.020 0.171-0.028 0.236-0.018 0.376-0.088 0.604-0.306 0.183-0.173 0.226-0.201 0.366-0.221 0.033-0.005 0.053-0.030 0.058-0.078 0.008-0.063 0.002-0.068-0.088-0.068-0.053 0-0.128 0.018-0.166 0.038z"></path> -->
<!-- <path d="M18.851 26.613c0.013 0.155 0.010 0.171-0.053 0.233-0.085 0.085-0.090 0.196-0.008 0.183 0.075-0.010 0.12-0.145 0.103-0.311-0.023-0.211-0.060-0.301-0.043-0.105z"></path> -->
<!-- <path d="M19.23 26.786c-0.010 0.035-0.065 0.115-0.12 0.178-0.103 0.118-0.118 0.155-0.075 0.183 0.083 0.050 0.233-0.178 0.221-0.334-0.008-0.085-0.010-0.088-0.025-0.028z"></path> -->
<!-- <path d="M15.674 27.198c0 0.023 0.068 0.068 0.161 0.11 0.088 0.040 0.329 0.171 0.532 0.293 0.818 0.484 1.174 0.597 1.891 0.594 0.517-0.003 0.782-0.048 1.881-0.321 1.302-0.323 1.605-0.376 2.232-0.374 0.404 0 0.695 0.030 0.948 0.1 0.053 0.015 0.058 0.010 0.050-0.043-0.010-0.073-0.238-0.193-0.534-0.278-0.181-0.053-0.251-0.058-0.715-0.058-0.614 0-0.71 0.015-1.745 0.276-1.733 0.436-2.214 0.474-3.165 0.238-0.459-0.113-0.627-0.173-0.958-0.339-0.203-0.103-0.527-0.238-0.564-0.238-0.008 0-0.013 0.018-0.013 0.038z"></path> -->
<!-- <path d="M21.48 27.887c-0.15 0.010-0.351 0.020-0.444 0.023-0.166 0.003-0.171 0.005-0.171 0.065 0 0.035 0.015 0.068 0.033 0.075 0.015 0.005 0.414 0.020 0.883 0.035 0.93 0.030 1.116 0.048 1.53 0.145 0.767 0.181 1.545 0.519 2.295 0.998 0.421 0.268 0.853 0.487 1.091 0.552s0.755 0.075 1.021 0.018l0.218-0.045 0.025 0.068c0.060 0.173 0.323 0.369 0.589 0.439 0.133 0.035 0.557 0.043 0.667 0.013 0.053-0.015 0.078 0 0.168 0.098 0.055 0.063 0.158 0.145 0.226 0.183 0.163 0.088 0.441 0.15 0.579 0.133 0.098-0.013 0.115-0.008 0.191 0.068 0.163 0.163 0.401 0.238 0.818 0.261 0.281 0.013 0.612-0.015 0.81-0.070 0.075-0.020 0.095-0.038 0.088-0.075-0.008-0.050-0.030-0.050-0.534-0.058-0.557-0.008-0.78-0.045-1.018-0.168l-0.098-0.050 0.055-0.073c0.078-0.105 0.095-0.381 0.033-0.451-0.025-0.028-0.065-0.050-0.090-0.050-0.063 0-0.168 0.138-0.186 0.246-0.028 0.155-0.028 0.155-0.163 0.155-0.201 0-0.461-0.070-0.577-0.153l-0.103-0.075 0.075-0.063c0.13-0.11 0.186-0.263 0.188-0.522l0.003-0.228-0.115 0.003c-0.223 0.003-0.346 0.163-0.349 0.451 0 0.153 0 0.155-0.078 0.171-0.308 0.060-0.8-0.063-0.971-0.243l-0.055-0.058 0.233-0.118c0.281-0.143 0.482-0.313 0.582-0.497 0.186-0.341 0.023-0.802-0.306-0.865-0.118-0.023-0.313 0.053-0.431 0.166-0.196 0.191-0.329 0.569-0.329 0.938 0 0.186 0.013 0.178-0.288 0.218-0.411 0.053-0.895-0.043-1.342-0.266-0.118-0.058-0.376-0.211-0.577-0.339-0.918-0.582-1.941-0.958-2.881-1.053-0.278-0.028-0.85-0.028-1.294 0zM28.762 28.534c0.035 0.025 0.080 0.078 0.098 0.113 0.11 0.226-0.258 0.597-0.76 0.77l-0.138 0.048-0.015-0.063c-0.028-0.113 0.005-0.371 0.065-0.484 0.075-0.15 0.268-0.351 0.389-0.409 0.12-0.055 0.266-0.045 0.361 0.025zM29.618 29.643c0 0.098-0.246 0.349-0.303 0.311-0.060-0.038 0.008-0.258 0.095-0.308 0.060-0.035 0.208-0.035 0.208-0.003zM30.495 30.28c0 0.045-0.095 0.115-0.158 0.115-0.038 0-0.040-0.008-0.015-0.058 0.018-0.030 0.043-0.063 0.058-0.073 0.048-0.033 0.115-0.023 0.115 0.015z"></path> -->
<!-- <path d="M4.416 28.188c-0.14 0.547-0.241 0.747-0.479 0.976-0.238 0.226//-0.532 0.391-1.146 0.645-0.845 0.349-1.186 0.562-1.297 0.81-0.048 0.103-0.040 0.278 0.013 0.278 0.015 0 0.018-0.035 0.008-0.090-0.015-0.083-0.008-0.098 0.108-0.208 0.161-0.155 0.509-0.331 1.073-0.542 0.692-0.261 1.003-0.431 1.279-0.707 0.233-0.233 0.311-0.401 0.426-0.92 0.063-0.281 0.075-0.474 0.015-0.241z"></path> -->
<!-- <path d="M6.47 28.283c0 0.058 0.015 0.075 0.095 0.103 0.584 0.206 1.071 0.489 1.389 0.808 0.156 0.155 0.213 0.236 0.303 0.426 0.14 0.293 0.178 0.456 0.163 0.73-0.013 0.266-0.078 0.404-0.346 0.757-0.105 0.14-0.218 0.298-0.251 0.354-0.148 0.253-0.221 0.268-0.487 0.103-0.298-0.186-0.617-0.334-0.998-0.464-0.426-0.145-0.589-0.223-0.705-0.336-0.16-0.163-0.218-0.366-0.218-0.772 0-0.163-0.010-0.248-0.028-0.248-0.020 0-0.025 0.128-0.018 0.431 0.013 0.487 0.045 0.627 0.178 0.802 0.171 0.221 0.374 0.336 1.011 0.562 0.334 0.115 0.466 0.178 0.632 0.291 0.143 0.098 0.303 0.171 0.386 0.171 0.085 0 0.16-0.088 0.311-0.371 0.065-0.12 0.173-0.293 0.238-0.384 0.263-0.359 0.361-0.672 0.341-1.088-0.028-0.622-0.313-1.136-0.853-1.545-0.334-0.253-0.707-0.396-1.026-0.399-0.115 0-0.12 0.003-0.12 0.070z"></path> -->
<!-- <path d="M21.62 28.416c-0.070 0.103-0.198 0.283-0.281 0.406-0.313 0.446-0.619 0.647-1.139 0.745-0.083 0.018-0.507 0.038-0.94 0.050-0.986 0.025-1.199 0.063-1.522 0.266-0.163 0.105-0.261 0.248-0.278 0.409-0.010 0.105-0.003 0.13 0.065 0.208 0.11 0.123 0.356 0.193 0.356 0.1 0-0.028-0.050-0.065-0.148-0.113-0.173-0.080-0.208-0.14-0.135-0.241 0.145-0.196 0.461-0.329 0.893-0.376 0.133-0.015 0.509-0.028 0.838-0.028 0.685 0 0.968-0.033 1.287-0.15 0.434-0.155 0.692-0.426 1.016-1.058 0.133-0.258 0.168-0.351 0.145-0.371-0.020-0.023-0.058 0.015-0.155 0.153z"></path> -->
<!-- <path d="M16.474 28.391c-0.045 0.085-0.018 0.326 0.050 0.419 0.123 0.173 0.394 0.233 0.554 0.123 0.045-0.030 0.105-0.085 0.133-0.12 0.050-0.070 0.090-0.298 0.053-0.298-0.013 0-0.050 0.043-0.085 0.093-0.103 0.15-0.286 0.196-0.471 0.12-0.166-0.070-0.206-0.125-0.188-0.266 0.015-0.133 0-0.155-0.045-0.070z"></path> -->
<!-- <path d="M17.7 28.597c-0.050 0.103-0.128 0.228-0.173 0.281-0.168 0.191-0.411 0.253-0.655 0.171-0.080-0.028-0.15-0.045-0.158-0.038-0.040 0.040 0.005 0.090 0.13 0.148 0.271 0.125 0.524 0.070 0.737-0.16 0.13-0.138 0.231-0.369 0.218-0.504-0.008-0.083-0.010-0.080-0.1 0.103z"></path> -->
<!-- <path d="M18.109 28.539c-0.008 0.228-0.178 0.446-0.396 0.509-0.108 0.033-0.12 0.043-0.128 0.113-0.008 0.078-0.005 0.080 0.093 0.080 0.133 0 0.223-0.038 0.323-0.133 0.125-0.123 0.196-0.431 0.13-0.582-0.020-0.045-0.023-0.045-0.023 0.013z"></path> -->
<!-- <path d="M18.433 28.579c0 0.128-0.068 0.311-0.148 0.414-0.073 0.088-0.103 0.198-0.058 0.198 0.033 0 0.145-0.13 0.191-0.218 0.053-0.108 0.080-0.361 0.045-0.424-0.025-0.043-0.028-0.038-0.030 0.030z"></path> -->
<!-- <path d="M2.199 28.702c-0.416 0.115-0.795 0.456-0.943 0.85-0.095 0.256-0.123 0.692-0.060 1.006 0.013 0.063 0.023 0.043 0.060-0.128 0.025-0.113 0.068-0.253 0.098-0.311 0.075-0.148 0.243-0.303 0.444-0.406 0.166-0.088 0.261-0.123 0.71-0.256l0.213-0.063-0.008-0.341c-0.008-0.339-0.008-0.339 0.050-0.341 0.048-0.003 0.045-0.008-0.018-0.023-0.12-0.030-0.416-0.023-0.547 0.013z"></path> -->
<!-- <path d="M5.542 28.725c0 0.018 0.063 0.060 0.14 0.090 0.171 0.070 0.374 0.253 0.512 0.459 0.075 0.113 0.1 0.135 0.085 0.083-0.013-0.055-0.010-0.068 0.015-0.053 0.058 0.035-0.060-0.138-0.196-0.288-0.093-0.103-0.186-0.176-0.311-0.238-0.193-0.095-0.246-0.108-0.246-0.053z"></path> -->
<!-- <path d="M2.658 30.581c-0.075 0.018-0.206 0.053-0.288 0.075-0.080 0.023-0.173 0.040-0.201 0.040-0.098 0-0.311 0.075-0.379 0.135-0.105 0.088-0.055 0.118 0.083 0.050 0.148-0.075 0.344-0.078 0.667-0.013 0.303 0.063 0.487 0.080 0.594 0.055 0.048-0.013 0.073-0.023 0.058-0.025-0.023-0.003-0.033-0.053-0.033-0.166 0-0.153-0.002-0.163-0.055-0.163-0.033 0-0.113-0.005-0.183-0.013-0.068-0.005-0.188 0.005-0.263 0.023z"></path> -->
<!-- <path d="M3.205 30.563c0.018 0.008 0.040 0.005 0.048-0.003 0.010-0.008-0.005-0.015-0.033-0.013-0.028 0-0.035 0.008-0.015 0.015z"></path> -->
</symbol>
<symbol>
<symbol id="icon-cool" viewBox="0 0 32 32">
<path d="M16 32c8.837 0 16-7.163 16-16s-7.163-16-16-16-16 7.163-16 16 7.163 16 16 16zM16 3c7.18 0 13 5.82 13 13s-5.82 13-13 13-13-5.82-13-13 5.82-13 13-13zM25 8c0.55 0 1 0.45 1 1v3c0 1.1-0.9 2-2 2h-4c-1.1 0-2-0.9-2-2h-4c0 1.1-0.9 2-2 2h-4c-1.1 0-2-0.9-2-2v-3c0-0.55 0.45-1 1-1h6c0.55 0 1 0.45 1 1v1h4v-1c0-0.55 0.45-1 1-1h6zM16 24c2.913 0 5.462-1.557 6.861-3.884l1.715 1.029c-1.749 2.908-4.935 4.855-8.576 4.855-1.514 0-2.95-0.337-4.236-0.94l1.036-1.727c0.98 0.429 2.061 0.668 3.199 0.668z"></path>
</symbol>
<path
        id="curve"
        stroke="#6c5fbc"
        style="stroke: var(--color1, #6c5fbc)"
        stroke-linejoin="round"
        stroke-linecap="round"
        stroke-miterlimit="1.5"
        stroke-width="1.3605"
        d="M15.122 4.255c-4.83 2.221-9.358 4.946-14.071 7.375M27.99 11.657c-8.638 0.866-17.315 2.688-25.71 4.844M22.072 25.58c-5.508-2.271-14.19-3.051-20.287-3.973"
        fill="none"/>
</symbol>
<symbol id="icon-spiral-arrow" viewBox="0 0 143 32">
<path stroke-linejoin="miter" stroke-linecap="butt" stroke-miterlimit="4" stroke-width="1.0667" d="M1.067 12.802c11.2-18.135 129.068-2.89 51.2 10.554s6.933-11.623 21.866-12.98c14.933-1.358 43.734-3.767 27.734 12.662s20.8 3.631 40-8.636M1.067 12.802l16.533-2.135M1.067 12.802l2.667-11.735"></path>
</symbol>
</defs>
</svg>
